<?xml version="1.0" encoding="utf-8"?>
<svg viewBox="0 0 232.317 25" width="232.317px" height="25px" xmlns="http://www.w3.org/2000/svg">
  <defs>
    <clipPath id="b">
      <rect width="1905" height="205"/>
    </clipPath>
  </defs>
  <g id="a" clip-path="url(#b)" transform="matrix(0.122666, 0, 0, 0.121951, -0.676577, 0)">
    <g transform="translate(201 -282)">
      <text transform="translate(-198 269)" fill="#2699fb" font-size="200" font-family="ArialRoundedMTBold, Arial Rounded MT Bold" style="white-space: pre;"><tspan x="2.527" y="189">FAIR F   OD FINDER</tspan></text>
      <g transform="translate(431 312)">
        <path d="M96.352-479.306c.561.628.627,1.355.726,6.212.132,7.368-.264,6.972,6.86,6.972,5.178,0,5.409.033,6.266.793a2.244,2.244,0,0,1,.923,2.016c0,1.156-.33,1.586-5.936,7.1-7.025,6.972-7.75,7.4-13.06,8.095-6.365.859-4.452-.727-29.615,24.45-15.5,15.5-22.624,22.435-23.481,22.8a4.832,4.832,0,0,1-4.452-.165,5.446,5.446,0,0,1-2.737-6.509c.33-.991,5.013-5.881,22.756-23.723,25.3-25.441,23.778-23.591,24.537-29.836a18.911,18.911,0,0,1,1.22-5.253c.495-1.09,2.605-3.5,6.695-7.632,5.8-5.881,5.969-6.013,7.288-6.013A2.447,2.447,0,0,1,96.352-479.306Z" transform="translate(36.873 480)" fill="#2699fb"/>
        <path d="M114.664-479.533a78.014,78.014,0,0,1,23.844,7.2,13.211,13.211,0,0,1,3.331,2.214,5.487,5.487,0,0,1-1.748,8.293c-1.649.859-3.76.628-6.3-.628a66.636,66.636,0,0,0-19.623-6.079,75.19,75.19,0,0,0-20.942.661c-25.889,5.485-44.951,25.243-49.865,51.576a87.619,87.619,0,0,0-.462,17.214A63.424,63.424,0,0,0,88.94-344.926a62.931,62.931,0,0,0,50.623-7.7,62.679,62.679,0,0,0,22.393-24.847,61.629,61.629,0,0,0,6.761-28.58,62.546,62.546,0,0,0-6.431-27.688c-1.946-4.064-1.649-6.906.989-8.69a6,6,0,0,1,6-.066c2.21,1.487,6.662,11.862,8.509,19.758a67.686,67.686,0,0,1,1.814,17.016,69.625,69.625,0,0,1-7.189,32.049C162.187-352.426,143.751-338.02,120.4-333c-3.628.76-5.046.892-12.367,1.024-7.222.165-8.871.1-13.027-.529a73.8,73.8,0,0,1-55.537-40.012A75.123,75.123,0,0,1,36.5-432.649a72.356,72.356,0,0,1,16.786-25.639A72.983,72.983,0,0,1,96.03-479.434,121.015,121.015,0,0,1,114.664-479.533Z" transform="translate(-31.6 479.897)" fill="#2699fb"/>
        <path d="M157.7-415.294c4.947.892,9.531,2.412,10.586,3.535a4.839,4.839,0,0,1,1.583,3.965,5.044,5.044,0,0,1-2.506,4.626c-1.682.958-3.3.958-6.5-.066a42.961,42.961,0,0,0-25,.033,42.7,42.7,0,0,0-27.142,26.168,42.97,42.97,0,0,0,0,27.886,42.881,42.881,0,0,0,25.79,25.838,44.591,44.591,0,0,0,21.041,1.751,55.006,55.006,0,0,0,11.477-3.767c5.64-2.841,12.862-9.185,16.094-14.141,6.992-10.672,9.036-23.525,5.606-34.825-1.22-4.064-1.319-6.179-.33-7.632a5.405,5.405,0,0,1,4.617-2.643c3.1,0,4.551,1.355,5.837,5.452a53.256,53.256,0,0,1-12.994,53.526,53.56,53.56,0,0,1-26.614,14.439c-3,.661-4.254.76-10.817.76s-7.816-.1-10.817-.76c-18.864-4.229-33.342-17.181-39.344-35.089a56.1,56.1,0,0,1-1.946-25.937,52.891,52.891,0,0,1,43.928-43.25A66.931,66.931,0,0,1,157.7-415.294Z" transform="translate(-74.434 437.101)" fill="#2699fb"/>
        <path d="M192.031-351.3a5.471,5.471,0,0,1,2.408,6.079c-.4,1.553-2.078,3.436-3.3,3.7-.429.1-1.979.4-3.43.661a21.451,21.451,0,0,0-16.49,15.562,23.093,23.093,0,0,0,1.913,15.2,23.721,23.721,0,0,0,8.805,8.525,20.962,20.962,0,0,0,20.414-.661,22.13,22.13,0,0,0,9.63-13.646c.726-3.965,1.022-4.758,2.078-5.815a6.039,6.039,0,0,1,4.782-1.619,6.326,6.326,0,0,1,3.661,2.544c1.814,3.007-.231,11.762-4.155,17.842a32.565,32.565,0,0,1-17.842,13.381c-2.671.826-3.364.892-8.674.892-6.266.033-7.453-.165-12.433-2.082a32.857,32.857,0,0,1-13.917-11.2,37.757,37.757,0,0,1-4.716-10.309,40.95,40.95,0,0,1,0-16.025,40.168,40.168,0,0,1,6.365-12.324c5.211-6.311,13.522-10.705,21.074-11.168C190.613-351.926,191.14-351.859,192.031-351.3Z" transform="translate(-117.509 394.184)" fill="#2699fb"/>
      </g>
    </g>
  </g>
</svg>