<?xml version="1.0" encoding="utf-8"?>
<svg viewBox="0 0 232.317 25" width="232.317px" height="25px" xmlns="http://www.w3.org/2000/svg">
  <g transform="matrix(0.122666, 0, 0, 0.121951, 22.538002, -34.254494)">
    <path d="M -182.473 458 L -182.473 320.4 L -87.673 320.4 L -87.673 350.8 L -139.473 350.8 L -139.473 378.6 L -91.473 378.6 L -91.473 403.8 L -139.473 403.8 L -139.473 458 L -182.473 458 ZM -84.079 458 L -46.079 320.4 L 14.721 320.4 L 54.521 458 L 7.521 458 L 2.321 431.6 L -33.279 431.6 L -39.079 458 L -84.079 458 Z M -29.079 407 L -2.479 407 L -15.479 346.8 L -29.079 407 ZM 69.713 458 L 69.713 320.4 L 115.913 320.4 L 115.913 458 L 69.713 458 ZM 248.109 461.2 C 223.043 461.2 207.709 449.6 202.109 426.4 L 197.109 405.8 L 187.709 405.8 L 187.709 458 L 143.909 458 L 143.909 320.4 L 204.509 320.4 C 215.976 320.4 226.076 322.1 234.809 325.5 C 243.543 328.9 250.309 333.667 255.109 339.8 C 259.909 345.933 262.309 353 262.309 361 C 262.309 369.933 260.143 377.433 255.809 383.5 C 251.476 389.567 244.776 394.533 235.709 398.4 C 236.643 403.467 237.709 408.067 238.909 412.2 C 240.509 417.267 242.709 420.8 245.509 422.8 C 248.309 424.8 252.376 425.8 257.709 425.8 C 259.576 425.8 262.509 425.533 266.509 425 L 266.509 457.6 C 260.243 460 254.109 461.2 248.109 461.2 Z M 187.709 377.8 L 195.309 377.8 C 205.176 377.8 212.143 376.7 216.209 374.5 C 220.276 372.3 222.309 368.533 222.309 363.2 C 222.309 358.667 220.643 355.367 217.309 353.3 C 213.976 351.233 208.709 350.2 201.509 350.2 L 187.709 350.2 L 187.709 377.8 ZM 324.899 458 L 324.899 320.4 L 419.699 320.4 L 419.699 350.8 L 367.899 350.8 L 367.899 378.6 L 415.899 378.6 L 415.899 403.8 L 367.899 403.8 L 367.899 458 L 324.899 458 ZM 665.285 461.2 C 650.885 461.2 638.118 458.133 626.985 452 C 615.851 445.867 607.185 437.367 600.985 426.5 C 594.785 415.633 591.685 403.267 591.685 389.4 C 591.685 375.4 594.785 362.933 600.985 352 C 607.185 341.067 615.851 332.567 626.985 326.5 C 638.118 320.433 650.885 317.4 665.285 317.4 C 679.685 317.4 692.451 320.433 703.585 326.5 C 714.718 332.567 723.385 341.033 729.585 351.9 C 735.785 362.767 738.885 375.267 738.885 389.4 C 738.885 403.267 735.785 415.633 729.585 426.5 C 723.385 437.367 714.685 445.867 703.485 452 C 692.285 458.133 679.551 461.2 665.285 461.2 Z M 665.285 424.8 C 673.685 424.8 680.585 421.533 685.985 415 C 691.385 408.467 694.085 399.867 694.085 389.2 C 694.085 382.133 692.851 375.833 690.385 370.3 C 687.918 364.767 684.485 360.433 680.085 357.3 C 675.685 354.167 670.685 352.6 665.085 352.6 C 659.618 352.6 654.685 354.167 650.285 357.3 C 645.885 360.433 642.485 364.767 640.085 370.3 C 637.685 375.833 636.485 382.133 636.485 389.2 C 636.485 399.867 639.151 408.467 644.485 415 C 649.818 421.533 656.751 424.8 665.285 424.8 ZM 760.076 458 L 760.076 320.4 L 819.876 320.4 C 834.276 320.4 847.042 323.267 858.176 329 C 869.309 334.733 877.976 342.733 884.176 353 C 890.376 363.267 893.476 375 893.476 388.2 C 893.476 402.067 890.442 414.267 884.376 424.8 C 878.309 435.333 869.709 443.5 858.576 449.3 C 847.442 455.1 834.542 458 819.876 458 L 760.076 458 Z M 804.276 422 L 817.876 422 C 827.876 422 835.509 418.833 840.776 412.5 C 846.042 406.167 848.676 397.933 848.676 387.8 C 848.676 378.2 846.109 370.567 840.976 364.9 C 835.842 359.233 828.142 356.4 817.876 356.4 L 804.276 356.4 L 804.276 422 ZM 954.265 458 L 954.265 320.4 L 1049.065 320.4 L 1049.065 350.8 L 997.265 350.8 L 997.265 378.6 L 1045.265 378.6 L 1045.265 403.8 L 997.265 403.8 L 997.265 458 L 954.265 458 ZM 1070.259 458 L 1070.259 320.4 L 1116.459 320.4 L 1116.459 458 L 1070.259 458 ZM 1144.455 458 L 1144.455 320.4 L 1184.655 320.4 L 1239.455 394.6 L 1239.455 320.4 L 1275.255 320.4 L 1275.255 458 L 1235.255 458 L 1180.055 386.4 L 1180.055 458 L 1144.455 458 ZM 1303.246 458 L 1303.246 320.4 L 1363.046 320.4 C 1377.446 320.4 1390.213 323.267 1401.346 329 C 1412.48 334.733 1421.146 342.733 1427.346 353 C 1433.546 363.267 1436.646 375 1436.646 388.2 C 1436.646 402.067 1433.613 414.267 1427.546 424.8 C 1421.48 435.333 1412.88 443.5 1401.746 449.3 C 1390.613 455.1 1377.713 458 1363.046 458 L 1303.246 458 Z M 1347.446 422 L 1361.046 422 C 1371.046 422 1378.68 418.833 1383.946 412.5 C 1389.213 406.167 1391.846 397.933 1391.846 387.8 C 1391.846 378.2 1389.28 370.567 1384.146 364.9 C 1379.013 359.233 1371.313 356.4 1361.046 356.4 L 1347.446 356.4 L 1347.446 422 ZM 1458.038 458 L 1458.038 320.4 L 1554.638 320.4 L 1554.638 350.8 L 1506.638 350.8 L 1506.638 375.8 L 1550.438 375.8 L 1550.438 401 L 1506.638 401 L 1506.638 427.6 L 1554.638 427.6 L 1554.638 458 L 1458.038 458 ZM 1683.232 461.2 C 1658.165 461.2 1642.832 449.6 1637.232 426.4 L 1632.232 405.8 L 1622.832 405.8 L 1622.832 458 L 1579.032 458 L 1579.032 320.4 L 1639.632 320.4 C 1651.098 320.4 1661.198 322.1 1669.932 325.5 C 1678.665 328.9 1685.432 333.667 1690.232 339.8 C 1695.032 345.933 1697.432 353 1697.432 361 C 1697.432 369.933 1695.265 377.433 1690.932 383.5 C 1686.598 389.567 1679.898 394.533 1670.832 398.4 C 1671.765 403.467 1672.832 408.067 1674.032 412.2 C 1675.632 417.267 1677.832 420.8 1680.632 422.8 C 1683.432 424.8 1687.498 425.8 1692.832 425.8 C 1694.698 425.8 1697.632 425.533 1701.632 425 L 1701.632 457.6 C 1695.365 460 1689.232 461.2 1683.232 461.2 Z M 1622.832 377.8 L 1630.432 377.8 C 1640.298 377.8 1647.265 376.7 1651.332 374.5 C 1655.398 372.3 1657.432 368.533 1657.432 363.2 C 1657.432 358.667 1655.765 355.367 1652.432 353.3 C 1649.098 351.233 1643.832 350.2 1636.632 350.2 L 1622.832 350.2 L 1622.832 377.8 Z" transform="matrix(1, 0, 0, 1, 0, 0)" style="fill: rgb(38, 153, 251); white-space: pre;"/>
    <g transform="matrix(0.99695, 0, 0, 0.986123, 428.553589, 316.123962)">
      <title>logo</title>
      <path d="M96.352-479.306c.561.628.627,1.355.726,6.212.132,7.368-.264,6.972,6.86,6.972,5.178,0,5.409.033,6.266.793a2.244,2.244,0,0,1,.923,2.016c0,1.156-.33,1.586-5.936,7.1-7.025,6.972-7.75,7.4-13.06,8.095-6.365.859-4.452-.727-29.615,24.45-15.5,15.5-22.624,22.435-23.481,22.8a4.832,4.832,0,0,1-4.452-.165,5.446,5.446,0,0,1-2.737-6.509c.33-.991,5.013-5.881,22.756-23.723,25.3-25.441,23.778-23.591,24.537-29.836a18.911,18.911,0,0,1,1.22-5.253c.495-1.09,2.605-3.5,6.695-7.632,5.8-5.881,5.969-6.013,7.288-6.013A2.447,2.447,0,0,1,96.352-479.306Z" transform="translate(36.873 480)" style="fill: rgb(38, 153, 251); stroke: rgb(38, 153, 251); stroke-width: 1.64914px;"/>
      <path d="M114.664-479.533a78.014,78.014,0,0,1,23.844,7.2,13.211,13.211,0,0,1,3.331,2.214,5.487,5.487,0,0,1-1.748,8.293c-1.649.859-3.76.628-6.3-.628a66.636,66.636,0,0,0-19.623-6.079,75.19,75.19,0,0,0-20.942.661c-25.889,5.485-44.951,25.243-49.865,51.576a87.619,87.619,0,0,0-.462,17.214A63.424,63.424,0,0,0,88.94-344.926a62.931,62.931,0,0,0,50.623-7.7,62.679,62.679,0,0,0,22.393-24.847,61.629,61.629,0,0,0,6.761-28.58,62.546,62.546,0,0,0-6.431-27.688c-1.946-4.064-1.649-6.906.989-8.69a6,6,0,0,1,6-.066c2.21,1.487,6.662,11.862,8.509,19.758a67.686,67.686,0,0,1,1.814,17.016,69.625,69.625,0,0,1-7.189,32.049C162.187-352.426,143.751-338.02,120.4-333c-3.628.76-5.046.892-12.367,1.024-7.222.165-8.871.1-13.027-.529a73.8,73.8,0,0,1-55.537-40.012A75.123,75.123,0,0,1,36.5-432.649a72.356,72.356,0,0,1,16.786-25.639A72.983,72.983,0,0,1,96.03-479.434,121.015,121.015,0,0,1,114.664-479.533Z" transform="translate(-31.6 479.897)" style="fill: rgb(38, 153, 251); stroke: rgb(38, 153, 251); stroke-width: 1.64914px;"/>
      <path d="M157.7-415.294c4.947.892,9.531,2.412,10.586,3.535a4.839,4.839,0,0,1,1.583,3.965,5.044,5.044,0,0,1-2.506,4.626c-1.682.958-3.3.958-6.5-.066a42.961,42.961,0,0,0-25,.033,42.7,42.7,0,0,0-27.142,26.168,42.97,42.97,0,0,0,0,27.886,42.881,42.881,0,0,0,25.79,25.838,44.591,44.591,0,0,0,21.041,1.751,55.006,55.006,0,0,0,11.477-3.767c5.64-2.841,12.862-9.185,16.094-14.141,6.992-10.672,9.036-23.525,5.606-34.825-1.22-4.064-1.319-6.179-.33-7.632a5.405,5.405,0,0,1,4.617-2.643c3.1,0,4.551,1.355,5.837,5.452a53.256,53.256,0,0,1-12.994,53.526,53.56,53.56,0,0,1-26.614,14.439c-3,.661-4.254.76-10.817.76s-7.816-.1-10.817-.76c-18.864-4.229-33.342-17.181-39.344-35.089a56.1,56.1,0,0,1-1.946-25.937,52.891,52.891,0,0,1,43.928-43.25A66.931,66.931,0,0,1,157.7-415.294Z" transform="translate(-74.434 437.101)" style="fill: rgb(38, 153, 251); stroke: rgb(38, 153, 251); stroke-width: 1.64914px;"/>
      <path d="M192.031-351.3a5.471,5.471,0,0,1,2.408,6.079c-.4,1.553-2.078,3.436-3.3,3.7-.429.1-1.979.4-3.43.661a21.451,21.451,0,0,0-16.49,15.562,23.093,23.093,0,0,0,1.913,15.2,23.721,23.721,0,0,0,8.805,8.525,20.962,20.962,0,0,0,20.414-.661,22.13,22.13,0,0,0,9.63-13.646c.726-3.965,1.022-4.758,2.078-5.815a6.039,6.039,0,0,1,4.782-1.619,6.326,6.326,0,0,1,3.661,2.544c1.814,3.007-.231,11.762-4.155,17.842a32.565,32.565,0,0,1-17.842,13.381c-2.671.826-3.364.892-8.674.892-6.266.033-7.453-.165-12.433-2.082a32.857,32.857,0,0,1-13.917-11.2,37.757,37.757,0,0,1-4.716-10.309,40.95,40.95,0,0,1,0-16.025,40.168,40.168,0,0,1,6.365-12.324c5.211-6.311,13.522-10.705,21.074-11.168C190.613-351.926,191.14-351.859,192.031-351.3Z" transform="translate(-117.509 394.184)" style="fill: rgb(38, 153, 251); stroke: rgb(38, 153, 251); stroke-width: 1.64914px;"/>
    </g>
  </g>
</svg>