<?xml version="1.0" standalone="no"?>
<!DOCTYPE svg PUBLIC "-//W3C//DTD SVG 20010904//EN"
 "http://www.w3.org/TR/2001/REC-SVG-20010904/DTD/svg10.dtd">
<svg version="1.0" xmlns="http://www.w3.org/2000/svg"
 width="700.000000pt" height="700.000000pt" viewBox="0 0 700.000000 700.000000"
 preserveAspectRatio="xMidYMid meet">
<metadata>
Created by potrace 1.11, written by Peter Selinger 2001-2013
</metadata>
<g transform="translate(0.000000,700.000000) scale(0.100000,-0.100000)"
fill="#000000" stroke="none">
<path d="M6171 6896 c-17 -6 -52 -27 -76 -46 -81 -64 -490 -484 -528 -542 -44
-67 -65 -150 -91 -358 -20 -160 -69 -221 -571 -720 -110 -109 -247 -244 -305
-300 -527 -512 -1198 -1178 -1299 -1290 -52 -58 -65 -97 -57 -172 7 -71 22
-101 74 -152 49 -47 126 -75 192 -71 76 5 86 12 270 184 164 154 173 163 380
361 263 254 303 292 619 599 787 765 905 875 1029 958 86 56 127 69 282 89
271 34 315 62 741 484 130 128 158 161 164 192 12 61 -11 105 -70 135 -23 13
-75 16 -255 18 -124 1 -237 6 -250 10 -69 21 -77 52 -85 305 -7 217 -8 234
-23 271 -16 40 -88 63 -141 45z"/>
<path d="M3219 6896 c-2 -2 -47 -6 -99 -9 -52 -4 -106 -9 -120 -12 -14 -3 -43
-7 -65 -10 -22 -3 -51 -7 -65 -10 -14 -3 -36 -7 -50 -10 -320 -59 -680 -184
-976 -339 -141 -75 -225 -127 -428 -266 -108 -74 -294 -236 -446 -389 -366
-368 -636 -805 -799 -1288 -37 -112 -77 -248 -87 -303 -3 -14 -11 -56 -19 -95
-8 -38 -16 -83 -19 -100 -2 -16 -8 -50 -12 -75 -7 -48 -9 -61 -21 -180 -15
-147 -8 -586 12 -711 2 -13 6 -46 10 -72 4 -27 8 -59 11 -70 2 -12 7 -38 10
-57 42 -267 161 -621 301 -900 92 -184 220 -394 310 -508 138 -177 185 -232
323 -371 357 -361 840 -663 1327 -831 68 -23 246 -78 277 -85 118 -27 353 -74
397 -79 31 -4 65 -8 76 -10 128 -25 754 -22 969 4 108 13 321 61 469 105 1029
304 1816 998 2238 1975 107 247 198 566 222 777 3 27 8 60 10 74 26 132 26
801 0 899 -2 8 -7 38 -11 65 -14 104 -20 137 -51 260 -80 326 -256 746 -366
871 -45 51 -106 74 -189 70 -143 -6 -241 -108 -233 -243 4 -65 27 -129 113
-318 104 -229 190 -525 218 -745 3 -30 8 -64 10 -74 22 -119 22 -547 -1 -678
-2 -12 -7 -43 -10 -68 -22 -185 -113 -512 -191 -690 -152 -347 -359 -653 -609
-906 -519 -524 -1159 -824 -1905 -891 -148 -13 -522 -6 -620 12 -8 1 -40 6
-70 10 -30 4 -62 9 -70 10 -8 2 -60 13 -115 24 -480 97 -964 334 -1339 655
-199 171 -445 453 -561 644 -107 176 -187 330 -235 453 -12 30 -28 68 -35 84
-67 148 -157 529 -173 725 -15 197 -2 627 23 750 3 14 7 34 9 45 62 322 213
705 393 994 162 260 349 475 612 705 130 112 409 291 595 381 276 132 615 241
846 271 25 3 56 7 69 9 163 27 734 27 861 1 64 -14 78 -16 115 -22 121 -17
543 -139 570 -165 5 -5 15 -9 22 -9 7 0 64 -23 126 -51 221 -101 313 -105 413
-17 109 96 108 276 -2 366 -74 61 -328 174 -567 252 -151 50 -408 113 -547
135 -58 9 -116 19 -130 22 -28 6 -715 15 -721 9z"/>
<path d="M3225 5920 c-410 -43 -793 -180 -1132 -406 -172 -115 -250 -180 -401
-334 -383 -390 -622 -890 -679 -1421 -17 -161 -5 -517 22 -660 2 -9 6 -34 9
-55 11 -67 56 -235 88 -329 88 -257 226 -505 405 -730 63 -79 268 -288 324
-330 14 -11 69 -53 123 -93 53 -41 107 -79 119 -86 12 -6 42 -24 66 -40 72
-46 239 -131 336 -171 50 -20 99 -41 110 -46 67 -28 328 -102 411 -115 21 -3
41 -7 44 -9 16 -10 234 -19 450 -18 254 0 350 5 435 22 86 18 94 19 173 41 42
12 82 23 87 24 24 5 203 66 250 85 11 5 79 37 150 71 270 130 465 269 675 480
276 276 461 574 586 941 29 86 68 230 80 299 2 14 7 36 9 50 7 34 14 82 24
165 9 70 8 483 -2 520 -2 11 -8 45 -12 75 -6 46 -15 93 -40 211 -30 140 -98
308 -145 357 -47 49 -94 66 -180 66 -77 0 -127 -21 -181 -75 -90 -90 -90 -153
-5 -459 18 -63 42 -197 51 -285 13 -125 3 -375 -20 -480 -3 -11 -7 -31 -9 -45
-49 -265 -201 -600 -365 -805 -170 -212 -459 -449 -690 -565 -127 -63 -363
-141 -536 -176 -176 -36 -446 -37 -670 -4 -150 22 -181 29 -340 82 -487 162
-906 528 -1138 993 -83 167 -148 367 -171 525 -15 107 -20 179 -21 305 0 170
8 259 36 390 6 28 13 60 15 73 6 29 52 178 67 217 7 16 38 83 70 149 186 383
500 697 897 896 54 28 101 50 105 50 3 0 26 9 51 21 107 48 303 98 489 124
100 14 450 14 525 0 19 -3 72 -13 117 -21 45 -8 128 -28 185 -44 131 -38 193
-45 260 -30 109 26 178 116 179 234 1 78 -25 139 -76 185 -60 53 -312 133
-503 161 -42 6 -90 13 -107 16 -48 9 -523 12 -600 4z"/>
<path d="M3340 4953 c-230 -19 -484 -111 -700 -255 -127 -84 -301 -257 -374
-370 -107 -164 -217 -405 -232 -507 -3 -20 -8 -47 -11 -61 -3 -14 -7 -113 -9
-220 -5 -300 20 -426 131 -658 72 -149 145 -259 239 -360 209 -221 448 -363
751 -444 71 -20 110 -22 355 -25 218 -2 289 1 340 13 311 72 614 251 816 482
159 181 263 383 320 619 30 121 36 264 16 324 -16 46 -72 102 -131 131 -127
62 -302 -15 -344 -153 -9 -29 -19 -70 -22 -89 -35 -211 -127 -391 -283 -552
-246 -254 -622 -352 -972 -252 -171 49 -302 127 -429 253 -111 109 -138 145
-186 246 -84 176 -116 379 -91 578 8 67 59 216 99 288 113 204 297 368 510
454 45 19 148 47 230 64 92 18 156 37 171 49 33 25 70 70 89 108 54 106 10
247 -98 314 -33 20 -104 29 -185 23z"/>
</g>
</svg>
